<?xml version="1.0" encoding="UTF-8" standalone="no"?><svg xmlns="http://www.w3.org/2000/svg" xmlns:xlink="http://www.w3.org/1999/xlink" contentStyleType="text/css" height="1348px" preserveAspectRatio="none" style="width:2102px;height:1348px;background:#FFFFFF;" version="1.1" viewBox="0 0 2102 1348" width="2102px" zoomAndPan="magnify"><defs/><g><rect fill="none" height="26.2969" id="_title" style="stroke:none;stroke-width:1.0;" width="190" x="952" y="10"/><text fill="#000000" font-family="sans-serif" font-size="14" font-weight="bold" lengthAdjust="spacing" textLength="180" x="957" y="27.9951">美西组织，设备在欧洲地区</text><rect fill="#FFFFFF" height="1220.4453" style="stroke:#181818;stroke-width:1.0;" width="10" x="21" y="83.5938"/><rect fill="#FFFFFF" height="276.3281" style="stroke:#181818;stroke-width:1.0;" width="10" x="408" y="147.8594"/><rect fill="#FFFFFF" height="406.9922" style="stroke:#181818;stroke-width:1.0;" width="10" x="408" y="496.4531"/><rect fill="#FFFFFF" height="145.6641" style="stroke:#181818;stroke-width:1.0;" width="10" x="716" y="249.3906"/><rect fill="#FFFFFF" height="87.3984" style="stroke:#181818;stroke-width:1.0;" width="10" x="911" y="278.5234"/><rect fill="#FFFFFF" height="29.1328" style="stroke:#181818;stroke-width:1.0;" width="10" x="1197" y="307.6563"/><rect fill="#FFFFFF" height="276.3281" style="stroke:#181818;stroke-width:1.0;" width="10" x="1327" y="597.9844"/><rect fill="#FFFFFF" height="145.6641" style="stroke:#181818;stroke-width:1.0;" width="10" x="1635" y="699.5156"/><rect fill="#FFFFFF" height="328.3281" style="stroke:#181818;stroke-width:1.0;" width="10" x="1770.5" y="975.7109"/><rect fill="#FFFFFF" height="87.3984" style="stroke:#181818;stroke-width:1.0;" width="10" x="1873" y="728.6484"/><rect fill="#FFFFFF" height="29.1328" style="stroke:#181818;stroke-width:1.0;" width="10" x="2036" y="757.7813"/><rect fill="#FFFFFF" height="29.1328" style="stroke:#181818;stroke-width:1.0;" width="10" x="2036" y="1135.375"/><rect fill="#FFFFFF" height="38.1328" style="stroke:#181818;stroke-width:1.0;" width="10" x="2036" y="1265.9063"/><line style="stroke:#181818;stroke-width:0.5;stroke-dasharray:5.0,5.0;" x1="26" x2="26" y1="73.5938" y2="1313.0391"/><line style="stroke:#181818;stroke-width:0.5;stroke-dasharray:5.0,5.0;" x1="413" x2="413" y1="73.5938" y2="1313.0391"/><line style="stroke:#181818;stroke-width:0.5;stroke-dasharray:5.0,5.0;" x1="721" x2="721" y1="73.5938" y2="1313.0391"/><line style="stroke:#181818;stroke-width:0.5;stroke-dasharray:5.0,5.0;" x1="916" x2="916" y1="73.5938" y2="1313.0391"/><line style="stroke:#181818;stroke-width:0.5;stroke-dasharray:5.0,5.0;" x1="1202" x2="1202" y1="73.5938" y2="1313.0391"/><line style="stroke:#181818;stroke-width:0.5;stroke-dasharray:5.0,5.0;" x1="1332" x2="1332" y1="73.5938" y2="1313.0391"/><line style="stroke:#181818;stroke-width:0.5;stroke-dasharray:5.0,5.0;" x1="1640" x2="1640" y1="73.5938" y2="1313.0391"/><line style="stroke:#181818;stroke-width:0.5;stroke-dasharray:5.0,5.0;" x1="1775" x2="1775" y1="73.5938" y2="1313.0391"/><line style="stroke:#181818;stroke-width:0.5;stroke-dasharray:5.0,5.0;" x1="1878" x2="1878" y1="73.5938" y2="1313.0391"/><line style="stroke:#181818;stroke-width:0.5;stroke-dasharray:5.0,5.0;" x1="2041" x2="2041" y1="73.5938" y2="1313.0391"/><rect fill="#E2E2F0" height="30.2969" rx="2.5" ry="2.5" style="stroke:#181818;stroke-width:0.5;" width="42" x="5" y="42.2969"/><text fill="#000000" font-family="sans-serif" font-size="14" lengthAdjust="spacing" textLength="28" x="12" y="62.292">设备</text><rect fill="#E2E2F0" height="30.2969" rx="2.5" ry="2.5" style="stroke:#181818;stroke-width:0.5;" width="42" x="5" y="1312.0391"/><text fill="#000000" font-family="sans-serif" font-size="14" lengthAdjust="spacing" textLength="28" x="12" y="1332.0342">设备</text><rect fill="#FFA500" height="30.2969" rx="2.5" ry="2.5" style="stroke:#181818;stroke-width:0.5;" width="142" x="342" y="42.2969"/><text fill="#000000" font-family="sans-serif" font-size="14" lengthAdjust="spacing" textLength="128" x="349" y="62.292">mdc-nginx（欧洲）</text><rect fill="#FFA500" height="30.2969" rx="2.5" ry="2.5" style="stroke:#181818;stroke-width:0.5;" width="142" x="342" y="1312.0391"/><text fill="#000000" font-family="sans-serif" font-size="14" lengthAdjust="spacing" textLength="128" x="349" y="1332.0342">mdc-nginx（欧洲）</text><rect fill="#CD853F" height="30.2969" rx="2.5" ry="2.5" style="stroke:#181818;stroke-width:0.5;" width="164" x="639" y="42.2969"/><text fill="#000000" font-family="sans-serif" font-size="14" lengthAdjust="spacing" textLength="150" x="646" y="62.292">二层路由apisix（欧洲）</text><rect fill="#CD853F" height="30.2969" rx="2.5" ry="2.5" style="stroke:#181818;stroke-width:0.5;" width="164" x="639" y="1312.0391"/><text fill="#000000" font-family="sans-serif" font-size="14" lengthAdjust="spacing" textLength="150" x="646" y="1332.0342">二层路由apisix（欧洲）</text><rect fill="#90EE90" height="30.2969" rx="2.5" ry="2.5" style="stroke:#181818;stroke-width:0.5;" width="98" x="867" y="42.2969"/><text fill="#000000" font-family="sans-serif" font-size="14" lengthAdjust="spacing" textLength="84" x="874" y="62.292">网关（欧洲）</text><rect fill="#90EE90" height="30.2969" rx="2.5" ry="2.5" style="stroke:#181818;stroke-width:0.5;" width="98" x="867" y="1312.0391"/><text fill="#000000" font-family="sans-serif" font-size="14" lengthAdjust="spacing" textLength="84" x="874" y="1332.0342">网关（欧洲）</text><rect fill="#90EE90" height="30.2969" rx="2.5" ry="2.5" style="stroke:#181818;stroke-width:0.5;" width="98" x="1153" y="42.2969"/><text fill="#000000" font-family="sans-serif" font-size="14" lengthAdjust="spacing" textLength="84" x="1160" y="62.292">后台（欧洲）</text><rect fill="#90EE90" height="30.2969" rx="2.5" ry="2.5" style="stroke:#181818;stroke-width:0.5;" width="98" x="1153" y="1312.0391"/><text fill="#000000" font-family="sans-serif" font-size="14" lengthAdjust="spacing" textLength="84" x="1160" y="1332.0342">后台（欧洲）</text><rect fill="#FFA500" height="30.2969" rx="2.5" ry="2.5" style="stroke:#181818;stroke-width:0.5;" width="142" x="1261" y="42.2969"/><text fill="#000000" font-family="sans-serif" font-size="14" lengthAdjust="spacing" textLength="128" x="1268" y="62.292">mdc-nginx（美西）</text><rect fill="#FFA500" height="30.2969" rx="2.5" ry="2.5" style="stroke:#181818;stroke-width:0.5;" width="142" x="1261" y="1312.0391"/><text fill="#000000" font-family="sans-serif" font-size="14" lengthAdjust="spacing" textLength="128" x="1268" y="1332.0342">mdc-nginx（美西）</text><rect fill="#CD853F" height="30.2969" rx="2.5" ry="2.5" style="stroke:#181818;stroke-width:0.5;" width="164" x="1558" y="42.2969"/><text fill="#000000" font-family="sans-serif" font-size="14" lengthAdjust="spacing" textLength="150" x="1565" y="62.292">二层路由apisix（美西）</text><rect fill="#CD853F" height="30.2969" rx="2.5" ry="2.5" style="stroke:#181818;stroke-width:0.5;" width="164" x="1558" y="1312.0391"/><text fill="#000000" font-family="sans-serif" font-size="14" lengthAdjust="spacing" textLength="150" x="1565" y="1332.0342">二层路由apisix（美西）</text><rect fill="#FF6347" height="30.2969" rx="2.5" ry="2.5" style="stroke:#181818;stroke-width:0.5;" width="87" x="1732" y="42.2969"/><text fill="#000000" font-family="sans-serif" font-size="14" lengthAdjust="spacing" textLength="73" x="1739" y="62.292">iot（美西）</text><rect fill="#FF6347" height="30.2969" rx="2.5" ry="2.5" style="stroke:#181818;stroke-width:0.5;" width="87" x="1732" y="1312.0391"/><text fill="#000000" font-family="sans-serif" font-size="14" lengthAdjust="spacing" textLength="73" x="1739" y="1332.0342">iot（美西）</text><rect fill="#90EE90" height="30.2969" rx="2.5" ry="2.5" style="stroke:#181818;stroke-width:0.5;" width="98" x="1829" y="42.2969"/><text fill="#000000" font-family="sans-serif" font-size="14" lengthAdjust="spacing" textLength="84" x="1836" y="62.292">网关（美西）</text><rect fill="#90EE90" height="30.2969" rx="2.5" ry="2.5" style="stroke:#181818;stroke-width:0.5;" width="98" x="1829" y="1312.0391"/><text fill="#000000" font-family="sans-serif" font-size="14" lengthAdjust="spacing" textLength="84" x="1836" y="1332.0342">网关（美西）</text><rect fill="#90EE90" height="30.2969" rx="2.5" ry="2.5" style="stroke:#181818;stroke-width:0.5;" width="98" x="1992" y="42.2969"/><text fill="#000000" font-family="sans-serif" font-size="14" lengthAdjust="spacing" textLength="84" x="1999" y="62.292">后台（美西）</text><rect fill="#90EE90" height="30.2969" rx="2.5" ry="2.5" style="stroke:#181818;stroke-width:0.5;" width="98" x="1992" y="1312.0391"/><text fill="#000000" font-family="sans-serif" font-size="14" lengthAdjust="spacing" textLength="84" x="1999" y="1332.0342">后台（美西）</text><rect fill="#FFFFFF" height="1220.4453" style="stroke:#181818;stroke-width:1.0;" width="10" x="21" y="83.5938"/><rect fill="#FFFFFF" height="276.3281" style="stroke:#181818;stroke-width:1.0;" width="10" x="408" y="147.8594"/><rect fill="#FFFFFF" height="406.9922" style="stroke:#181818;stroke-width:1.0;" width="10" x="408" y="496.4531"/><rect fill="#FFFFFF" height="145.6641" style="stroke:#181818;stroke-width:1.0;" width="10" x="716" y="249.3906"/><rect fill="#FFFFFF" height="87.3984" style="stroke:#181818;stroke-width:1.0;" width="10" x="911" y="278.5234"/><rect fill="#FFFFFF" height="29.1328" style="stroke:#181818;stroke-width:1.0;" width="10" x="1197" y="307.6563"/><rect fill="#FFFFFF" height="276.3281" style="stroke:#181818;stroke-width:1.0;" width="10" x="1327" y="597.9844"/><rect fill="#FFFFFF" height="145.6641" style="stroke:#181818;stroke-width:1.0;" width="10" x="1635" y="699.5156"/><rect fill="#FFFFFF" height="328.3281" style="stroke:#181818;stroke-width:1.0;" width="10" x="1770.5" y="975.7109"/><rect fill="#FFFFFF" height="87.3984" style="stroke:#181818;stroke-width:1.0;" width="10" x="1873" y="728.6484"/><rect fill="#FFFFFF" height="29.1328" style="stroke:#181818;stroke-width:1.0;" width="10" x="2036" y="757.7813"/><rect fill="#FFFFFF" height="29.1328" style="stroke:#181818;stroke-width:1.0;" width="10" x="2036" y="1135.375"/><rect fill="#FFFFFF" height="38.1328" style="stroke:#181818;stroke-width:1.0;" width="10" x="2036" y="1265.9063"/><rect fill="#EEEEEE" height="3" style="stroke:#EEEEEE;stroke-width:1.0;" width="2095" x="0" y="104.1602"/><line style="stroke:#000000;stroke-width:1.0;" x1="0" x2="2095" y1="104.1602" y2="104.1602"/><line style="stroke:#000000;stroke-width:1.0;" x1="0" x2="2095" y1="107.1602" y2="107.1602"/><rect fill="#EEEEEE" height="23.1328" style="stroke:#000000;stroke-width:2.0;" width="173" x="961" y="93.5938"/><text fill="#000000" font-family="sans-serif" font-size="13" font-weight="bold" lengthAdjust="spacing" textLength="154" x="967" y="109.6606">确定组织对应后台的区域</text><polygon fill="#181818" points="396,143.8594,406,147.8594,396,151.8594,400,147.8594" style="stroke:#181818;stroke-width:1.0;"/><line style="stroke:#181818;stroke-width:1.0;" x1="31" x2="402" y1="147.8594" y2="147.8594"/><text fill="#000000" font-family="sans-serif" font-size="13" font-weight="bold" lengthAdjust="spacing" textLength="9" x="38" y="142.7935">1</text><text fill="#000000" font-family="sans-serif" font-size="13" lengthAdjust="spacing" textLength="156" x="51" y="142.7935">根据邮箱查询用户区域归属</text><line style="stroke:#181818;stroke-width:1.0;" x1="418" x2="460" y1="207.2578" y2="207.2578"/><line style="stroke:#181818;stroke-width:1.0;" x1="460" x2="460" y1="207.2578" y2="220.2578"/><line style="stroke:#181818;stroke-width:1.0;" x1="419" x2="460" y1="220.2578" y2="220.2578"/><polygon fill="#181818" points="429,216.2578,419,220.2578,429,224.2578,425,220.2578" style="stroke:#181818;stroke-width:1.0;"/><text fill="#000000" font-family="sans-serif" font-size="13" font-weight="bold" lengthAdjust="spacing" textLength="9" x="425" y="187.0591">2</text><text fill="#000000" font-family="sans-serif" font-size="13" lengthAdjust="spacing" textLength="258" x="438" y="171.9263">根据”mdc-area“判断是否需要进行跨区流转</text><text fill="#000000" font-family="sans-serif" font-size="13" lengthAdjust="spacing" textLength="145" x="438" y="187.0591">请求没有mdc-are的信息</text><text fill="#000000" font-family="sans-serif" font-size="13" lengthAdjust="spacing" textLength="65" x="438" y="202.1919">不需要转区</text><polygon fill="#181818" points="704,245.3906,714,249.3906,704,253.3906,708,249.3906" style="stroke:#181818;stroke-width:1.0;"/><line style="stroke:#181818;stroke-width:1.0;" x1="418" x2="710" y1="249.3906" y2="249.3906"/><text fill="#000000" font-family="sans-serif" font-size="13" font-weight="bold" lengthAdjust="spacing" textLength="9" x="425" y="244.3247">3</text><text fill="#000000" font-family="sans-serif" font-size="13" lengthAdjust="spacing" textLength="153" x="438" y="244.3247">请求流转给到二层的apisix</text><polygon fill="#181818" points="899,274.5234,909,278.5234,899,282.5234,903,278.5234" style="stroke:#181818;stroke-width:1.0;"/><line style="stroke:#181818;stroke-width:1.0;" x1="726" x2="905" y1="278.5234" y2="278.5234"/><text fill="#000000" font-family="sans-serif" font-size="13" font-weight="bold" lengthAdjust="spacing" textLength="9" x="733" y="273.4575">4</text><text fill="#000000" font-family="sans-serif" font-size="13" lengthAdjust="spacing" textLength="104" x="746" y="273.4575">请求流转给到网关</text><polygon fill="#181818" points="1185,303.6563,1195,307.6563,1185,311.6563,1189,307.6563" style="stroke:#181818;stroke-width:1.0;"/><line style="stroke:#181818;stroke-width:1.0;" x1="921" x2="1191" y1="307.6563" y2="307.6563"/><text fill="#000000" font-family="sans-serif" font-size="13" font-weight="bold" lengthAdjust="spacing" textLength="9" x="928" y="302.5903">5</text><text fill="#000000" font-family="sans-serif" font-size="13" lengthAdjust="spacing" textLength="104" x="941" y="302.5903">请求流转给到后台</text><polygon fill="#181818" points="932,332.7891,922,336.7891,932,340.7891,928,336.7891" style="stroke:#181818;stroke-width:1.0;"/><line style="stroke:#181818;stroke-width:1.0;" x1="926" x2="1201" y1="336.7891" y2="336.7891"/><text fill="#000000" font-family="sans-serif" font-size="13" font-weight="bold" lengthAdjust="spacing" textLength="9" x="938" y="331.7231">6</text><text fill="#000000" font-family="sans-serif" font-size="13" lengthAdjust="spacing" textLength="239" x="951" y="331.7231">根据邮箱信息，返回用户区域”mdc-usa“</text><polygon fill="#181818" points="737,361.9219,727,365.9219,737,369.9219,733,365.9219" style="stroke:#181818;stroke-width:1.0;"/><line style="stroke:#181818;stroke-width:1.0;" x1="731" x2="915" y1="365.9219" y2="365.9219"/><text fill="#000000" font-family="sans-serif" font-size="13" font-weight="bold" lengthAdjust="spacing" textLength="9" x="743" y="360.856">7</text><text fill="#000000" font-family="sans-serif" font-size="13" lengthAdjust="spacing" textLength="148" x="756" y="360.856">返回用户区域”mdc-usa“</text><polygon fill="#181818" points="429,391.0547,419,395.0547,429,399.0547,425,395.0547" style="stroke:#181818;stroke-width:1.0;"/><line style="stroke:#181818;stroke-width:1.0;" x1="423" x2="720" y1="395.0547" y2="395.0547"/><text fill="#000000" font-family="sans-serif" font-size="13" font-weight="bold" lengthAdjust="spacing" textLength="9" x="435" y="389.9888">8</text><text fill="#000000" font-family="sans-serif" font-size="13" lengthAdjust="spacing" textLength="148" x="448" y="389.9888">返回用户区域”mdc-usa“</text><polygon fill="#181818" points="42,420.1875,32,424.1875,42,428.1875,38,424.1875" style="stroke:#181818;stroke-width:1.0;"/><line style="stroke:#181818;stroke-width:1.0;" x1="36" x2="412" y1="424.1875" y2="424.1875"/><text fill="#000000" font-family="sans-serif" font-size="13" font-weight="bold" lengthAdjust="spacing" textLength="9" x="48" y="419.1216">9</text><text fill="#000000" font-family="sans-serif" font-size="13" lengthAdjust="spacing" textLength="148" x="61" y="419.1216">返回用户区域”mdc-usa“</text><rect fill="#EEEEEE" height="3" style="stroke:#EEEEEE;stroke-width:1.0;" width="2095" x="0" y="452.7539"/><line style="stroke:#000000;stroke-width:1.0;" x1="0" x2="2095" y1="452.7539" y2="452.7539"/><line style="stroke:#000000;stroke-width:1.0;" x1="0" x2="2095" y1="455.7539" y2="455.7539"/><rect fill="#EEEEEE" height="23.1328" style="stroke:#000000;stroke-width:2.0;" width="164" x="965.5" y="442.1875"/><text fill="#000000" font-family="sans-serif" font-size="13" font-weight="bold" lengthAdjust="spacing" textLength="145" x="971.5" y="458.2544">确定组织对应的iot地址</text><polygon fill="#181818" points="396,492.4531,406,496.4531,396,500.4531,400,496.4531" style="stroke:#181818;stroke-width:1.0;"/><line style="stroke:#181818;stroke-width:1.0;" x1="31" x2="402" y1="496.4531" y2="496.4531"/><text fill="#000000" font-family="sans-serif" font-size="13" font-weight="bold" lengthAdjust="spacing" textLength="18" x="38" y="491.3872">10</text><text fill="#000000" font-family="sans-serif" font-size="13" lengthAdjust="spacing" textLength="336" x="60" y="491.3872">请求后台获取iot信息，请求带上”mdc-area = mdc-usa“</text><line style="stroke:#181818;stroke-width:1.0;" x1="418" x2="460" y1="555.8516" y2="555.8516"/><line style="stroke:#181818;stroke-width:1.0;" x1="460" x2="460" y1="555.8516" y2="568.8516"/><line style="stroke:#181818;stroke-width:1.0;" x1="419" x2="460" y1="568.8516" y2="568.8516"/><polygon fill="#181818" points="429,564.8516,419,568.8516,429,572.8516,425,568.8516" style="stroke:#181818;stroke-width:1.0;"/><text fill="#000000" font-family="sans-serif" font-size="13" font-weight="bold" lengthAdjust="spacing" textLength="18" x="425" y="535.6528">11</text><text fill="#000000" font-family="sans-serif" font-size="13" lengthAdjust="spacing" textLength="258" x="447" y="520.52">根据”mdc-area“判断是否需要进行跨区流转</text><text fill="#000000" font-family="sans-serif" font-size="13" lengthAdjust="spacing" textLength="212" x="447" y="535.6528">当前值为mdc-usa，当前服务是欧洲</text><text fill="#000000" font-family="sans-serif" font-size="13" lengthAdjust="spacing" textLength="52" x="447" y="550.7856">需要转区</text><polygon fill="#181818" points="1315,593.9844,1325,597.9844,1315,601.9844,1319,597.9844" style="stroke:#181818;stroke-width:1.0;"/><line style="stroke:#181818;stroke-width:1.0;" x1="418" x2="1321" y1="597.9844" y2="597.9844"/><text fill="#000000" font-family="sans-serif" font-size="13" font-weight="bold" lengthAdjust="spacing" textLength="18" x="425" y="592.9185">12</text><text fill="#000000" font-family="sans-serif" font-size="13" lengthAdjust="spacing" textLength="184" x="447" y="592.9185">请求流转给到美西的mdc-nginx</text><line style="stroke:#181818;stroke-width:1.0;" x1="1337" x2="1379" y1="657.3828" y2="657.3828"/><line style="stroke:#181818;stroke-width:1.0;" x1="1379" x2="1379" y1="657.3828" y2="670.3828"/><line style="stroke:#181818;stroke-width:1.0;" x1="1338" x2="1379" y1="670.3828" y2="670.3828"/><polygon fill="#181818" points="1348,666.3828,1338,670.3828,1348,674.3828,1344,670.3828" style="stroke:#181818;stroke-width:1.0;"/><text fill="#000000" font-family="sans-serif" font-size="13" font-weight="bold" lengthAdjust="spacing" textLength="18" x="1344" y="637.1841">13</text><text fill="#000000" font-family="sans-serif" font-size="13" lengthAdjust="spacing" textLength="258" x="1366" y="622.0513">根据”mdc-area“判断是否需要进行跨区流转</text><text fill="#000000" font-family="sans-serif" font-size="13" lengthAdjust="spacing" textLength="212" x="1366" y="637.1841">当前值为mdc-usa，当前服务是美西</text><text fill="#000000" font-family="sans-serif" font-size="13" lengthAdjust="spacing" textLength="65" x="1366" y="652.3169">不需要转区</text><polygon fill="#181818" points="1623,695.5156,1633,699.5156,1623,703.5156,1627,699.5156" style="stroke:#181818;stroke-width:1.0;"/><line style="stroke:#181818;stroke-width:1.0;" x1="1337" x2="1629" y1="699.5156" y2="699.5156"/><text fill="#000000" font-family="sans-serif" font-size="13" font-weight="bold" lengthAdjust="spacing" textLength="18" x="1344" y="694.4497">14</text><text fill="#000000" font-family="sans-serif" font-size="13" lengthAdjust="spacing" textLength="153" x="1366" y="694.4497">请求流转给到二层的apisix</text><polygon fill="#181818" points="1861,724.6484,1871,728.6484,1861,732.6484,1865,728.6484" style="stroke:#181818;stroke-width:1.0;"/><line style="stroke:#181818;stroke-width:1.0;" x1="1645" x2="1867" y1="728.6484" y2="728.6484"/><text fill="#000000" font-family="sans-serif" font-size="13" font-weight="bold" lengthAdjust="spacing" textLength="18" x="1652" y="723.5825">15</text><text fill="#000000" font-family="sans-serif" font-size="13" lengthAdjust="spacing" textLength="143" x="1674" y="723.5825">前端的请求流转给到网关</text><polygon fill="#181818" points="2024,753.7813,2034,757.7813,2024,761.7813,2028,757.7813" style="stroke:#181818;stroke-width:1.0;"/><line style="stroke:#181818;stroke-width:1.0;" x1="1883" x2="2030" y1="757.7813" y2="757.7813"/><text fill="#000000" font-family="sans-serif" font-size="13" font-weight="bold" lengthAdjust="spacing" textLength="18" x="1890" y="752.7153">16</text><text fill="#000000" font-family="sans-serif" font-size="13" lengthAdjust="spacing" textLength="104" x="1912" y="752.7153">请求流转给到后台</text><polygon fill="#181818" points="1894,782.9141,1884,786.9141,1894,790.9141,1890,786.9141" style="stroke:#181818;stroke-width:1.0;"/><line style="stroke:#181818;stroke-width:1.0;" x1="1888" x2="2040" y1="786.9141" y2="786.9141"/><text fill="#000000" font-family="sans-serif" font-size="13" font-weight="bold" lengthAdjust="spacing" textLength="18" x="1900" y="781.8481">17</text><text fill="#000000" font-family="sans-serif" font-size="13" lengthAdjust="spacing" textLength="107" x="1922" y="781.8481">返回美西的iot信息</text><polygon fill="#181818" points="1656,812.0469,1646,816.0469,1656,820.0469,1652,816.0469" style="stroke:#181818;stroke-width:1.0;"/><line style="stroke:#181818;stroke-width:1.0;" x1="1650" x2="1877" y1="816.0469" y2="816.0469"/><text fill="#000000" font-family="sans-serif" font-size="13" font-weight="bold" lengthAdjust="spacing" textLength="18" x="1662" y="810.981">18</text><text fill="#000000" font-family="sans-serif" font-size="13" lengthAdjust="spacing" textLength="107" x="1684" y="810.981">返回美西的iot信息</text><polygon fill="#181818" points="1348,841.1797,1338,845.1797,1348,849.1797,1344,845.1797" style="stroke:#181818;stroke-width:1.0;"/><line style="stroke:#181818;stroke-width:1.0;" x1="1342" x2="1639" y1="845.1797" y2="845.1797"/><text fill="#000000" font-family="sans-serif" font-size="13" font-weight="bold" lengthAdjust="spacing" textLength="18" x="1354" y="840.1138">19</text><text fill="#000000" font-family="sans-serif" font-size="13" lengthAdjust="spacing" textLength="107" x="1376" y="840.1138">返回美西的iot信息</text><polygon fill="#181818" points="429,870.3125,419,874.3125,429,878.3125,425,874.3125" style="stroke:#181818;stroke-width:1.0;"/><line style="stroke:#181818;stroke-width:1.0;" x1="423" x2="1331" y1="874.3125" y2="874.3125"/><text fill="#000000" font-family="sans-serif" font-size="13" font-weight="bold" lengthAdjust="spacing" textLength="18" x="435" y="869.2466">20</text><text fill="#000000" font-family="sans-serif" font-size="13" lengthAdjust="spacing" textLength="107" x="457" y="869.2466">返回美西的iot信息</text><polygon fill="#181818" points="42,899.4453,32,903.4453,42,907.4453,38,903.4453" style="stroke:#181818;stroke-width:1.0;"/><line style="stroke:#181818;stroke-width:1.0;" x1="36" x2="412" y1="903.4453" y2="903.4453"/><text fill="#000000" font-family="sans-serif" font-size="13" font-weight="bold" lengthAdjust="spacing" textLength="18" x="48" y="898.3794">21</text><text fill="#000000" font-family="sans-serif" font-size="13" lengthAdjust="spacing" textLength="107" x="70" y="898.3794">返回美西的iot信息</text><rect fill="#EEEEEE" height="3" style="stroke:#EEEEEE;stroke-width:1.0;" width="2095" x="0" y="932.0117"/><line style="stroke:#000000;stroke-width:1.0;" x1="0" x2="2095" y1="932.0117" y2="932.0117"/><line style="stroke:#000000;stroke-width:1.0;" x1="0" x2="2095" y1="935.0117" y2="935.0117"/><rect fill="#EEEEEE" height="23.1328" style="stroke:#000000;stroke-width:2.0;" width="178" x="958.5" y="921.4453"/><text fill="#000000" font-family="sans-serif" font-size="13" font-weight="bold" lengthAdjust="spacing" textLength="159" x="964.5" y="937.5122">连接到组织对应的iot地址</text><polygon fill="#181818" points="1758.5,971.7109,1768.5,975.7109,1758.5,979.7109,1762.5,975.7109" style="stroke:#181818;stroke-width:1.0;"/><line style="stroke:#181818;stroke-width:1.0;" x1="31" x2="1764.5" y1="975.7109" y2="975.7109"/><text fill="#000000" font-family="sans-serif" font-size="13" font-weight="bold" lengthAdjust="spacing" textLength="18" x="38" y="970.645">22</text><text fill="#000000" font-family="sans-serif" font-size="13" lengthAdjust="spacing" textLength="26" x="60" y="970.645">注册</text><polygon fill="#181818" points="42,1000.8438,32,1004.8438,42,1008.8438,38,1004.8438" style="stroke:#181818;stroke-width:1.0;"/><line style="stroke:#181818;stroke-width:1.0;" x1="36" x2="1769.5" y1="1004.8438" y2="1004.8438"/><text fill="#000000" font-family="sans-serif" font-size="13" font-weight="bold" lengthAdjust="spacing" textLength="18" x="48" y="999.7778">23</text><text fill="#000000" font-family="sans-serif" font-size="13" lengthAdjust="spacing" textLength="53" x="70" y="999.7778">返回iotId</text><polygon fill="#181818" points="1758.5,1029.9766,1768.5,1033.9766,1758.5,1037.9766,1762.5,1033.9766" style="stroke:#181818;stroke-width:1.0;"/><line style="stroke:#181818;stroke-width:1.0;" x1="31" x2="1764.5" y1="1033.9766" y2="1033.9766"/><text fill="#000000" font-family="sans-serif" font-size="13" font-weight="bold" lengthAdjust="spacing" textLength="18" x="38" y="1028.9106">24</text><text fill="#000000" font-family="sans-serif" font-size="13" lengthAdjust="spacing" textLength="84" x="60" y="1028.9106">broker 长链接</text><rect fill="#EEEEEE" height="3" style="stroke:#EEEEEE;stroke-width:1.0;" width="2095" x="0" y="1062.543"/><line style="stroke:#000000;stroke-width:1.0;" x1="0" x2="2095" y1="1062.543" y2="1062.543"/><line style="stroke:#000000;stroke-width:1.0;" x1="0" x2="2095" y1="1065.543" y2="1065.543"/><rect fill="#EEEEEE" height="23.1328" style="stroke:#000000;stroke-width:2.0;" width="75" x="1010" y="1051.9766"/><text fill="#000000" font-family="sans-serif" font-size="13" font-weight="bold" lengthAdjust="spacing" textLength="56" x="1016" y="1068.0435">上行请求</text><polygon fill="#181818" points="1758.5,1102.2422,1768.5,1106.2422,1758.5,1110.2422,1762.5,1106.2422" style="stroke:#181818;stroke-width:1.0;"/><line style="stroke:#181818;stroke-width:1.0;" x1="31" x2="1764.5" y1="1106.2422" y2="1106.2422"/><text fill="#000000" font-family="sans-serif" font-size="13" font-weight="bold" lengthAdjust="spacing" textLength="18" x="38" y="1101.1763">25</text><text fill="#000000" font-family="sans-serif" font-size="13" lengthAdjust="spacing" textLength="52" x="60" y="1101.1763">上行请求</text><polygon fill="#181818" points="2024,1131.375,2034,1135.375,2024,1139.375,2028,1135.375" style="stroke:#181818;stroke-width:1.0;"/><line style="stroke:#181818;stroke-width:1.0;" x1="1780.5" x2="2030" y1="1135.375" y2="1135.375"/><text fill="#000000" font-family="sans-serif" font-size="13" font-weight="bold" lengthAdjust="spacing" textLength="18" x="1787.5" y="1130.3091">26</text><text fill="#000000" font-family="sans-serif" font-size="13" lengthAdjust="spacing" textLength="117" x="1809.5" y="1130.3091">上行请求转发给后台</text><polygon fill="#181818" points="1791.5,1160.5078,1781.5,1164.5078,1791.5,1168.5078,1787.5,1164.5078" style="stroke:#181818;stroke-width:1.0;"/><line style="stroke:#181818;stroke-width:1.0;" x1="1785.5" x2="2040" y1="1164.5078" y2="1164.5078"/><text fill="#000000" font-family="sans-serif" font-size="13" font-weight="bold" lengthAdjust="spacing" textLength="18" x="1797.5" y="1159.4419">27</text><text fill="#000000" font-family="sans-serif" font-size="13" lengthAdjust="spacing" textLength="78" x="1819.5" y="1159.4419">返回请求结果</text><polygon fill="#181818" points="42,1189.6406,32,1193.6406,42,1197.6406,38,1193.6406" style="stroke:#181818;stroke-width:1.0;"/><line style="stroke:#181818;stroke-width:1.0;" x1="36" x2="1769.5" y1="1193.6406" y2="1193.6406"/><text fill="#000000" font-family="sans-serif" font-size="13" font-weight="bold" lengthAdjust="spacing" textLength="18" x="48" y="1188.5747">28</text><text fill="#000000" font-family="sans-serif" font-size="13" lengthAdjust="spacing" textLength="78" x="70" y="1188.5747">返回请求结果</text><rect fill="#EEEEEE" height="3" style="stroke:#EEEEEE;stroke-width:1.0;" width="2095" x="0" y="1222.207"/><line style="stroke:#000000;stroke-width:1.0;" x1="0" x2="2095" y1="1222.207" y2="1222.207"/><line style="stroke:#000000;stroke-width:1.0;" x1="0" x2="2095" y1="1225.207" y2="1225.207"/><rect fill="#EEEEEE" height="23.1328" style="stroke:#000000;stroke-width:2.0;" width="75" x="1010" y="1211.6406"/><text fill="#000000" font-family="sans-serif" font-size="13" font-weight="bold" lengthAdjust="spacing" textLength="56" x="1016" y="1227.7075">下行请求</text><polygon fill="#181818" points="1791.5,1261.9063,1781.5,1265.9063,1791.5,1269.9063,1787.5,1265.9063" style="stroke:#181818;stroke-width:1.0;"/><line style="stroke:#181818;stroke-width:1.0;" x1="1785.5" x2="2035" y1="1265.9063" y2="1265.9063"/><text fill="#000000" font-family="sans-serif" font-size="13" font-weight="bold" lengthAdjust="spacing" textLength="18" x="1797.5" y="1260.8403">29</text><text fill="#000000" font-family="sans-serif" font-size="13" lengthAdjust="spacing" textLength="52" x="1819.5" y="1260.8403">下行请求</text><polygon fill="#181818" points="42,1291.0391,32,1295.0391,42,1299.0391,38,1295.0391" style="stroke:#181818;stroke-width:1.0;"/><line style="stroke:#181818;stroke-width:1.0;" x1="36" x2="1769.5" y1="1295.0391" y2="1295.0391"/><text fill="#000000" font-family="sans-serif" font-size="13" font-weight="bold" lengthAdjust="spacing" textLength="18" x="48" y="1289.9731">30</text><text fill="#000000" font-family="sans-serif" font-size="13" lengthAdjust="spacing" textLength="52" x="70" y="1289.9731">下行请求</text></g></svg>