<?xml version="1.0" encoding="UTF-8" standalone="no"?><svg xmlns="http://www.w3.org/2000/svg" xmlns:xlink="http://www.w3.org/1999/xlink" contentStyleType="text/css" height="1217px" preserveAspectRatio="none" style="width:1306px;height:1217px;background:#FFFFFF;" version="1.1" viewBox="0 0 1306 1217" width="1306px" zoomAndPan="magnify"><defs/><g><rect fill="none" height="26.2969" id="_title" style="stroke:none;stroke-width:1.0;" width="190" x="554" y="10"/><text fill="#000000" font-family="sans-serif" font-size="14" font-weight="bold" lengthAdjust="spacing" textLength="180" x="559" y="27.9951">美西组织，设备在美西地区</text><rect fill="#FFFFFF" height="1089.7813" style="stroke:#181818;stroke-width:1.0;" width="10" x="21" y="83.5938"/><rect fill="#FFFFFF" height="276.3281" style="stroke:#181818;stroke-width:1.0;" width="10" x="408" y="147.8594"/><rect fill="#FFFFFF" height="276.3281" style="stroke:#181818;stroke-width:1.0;" width="10" x="408" y="496.4531"/><rect fill="#FFFFFF" height="145.6641" style="stroke:#181818;stroke-width:1.0;" width="10" x="716" y="249.3906"/><rect fill="#FFFFFF" height="145.6641" style="stroke:#181818;stroke-width:1.0;" width="10" x="716" y="597.9844"/><rect fill="#FFFFFF" height="328.3281" style="stroke:#181818;stroke-width:1.0;" width="10" x="851.5" y="845.0469"/><rect fill="#FFFFFF" height="87.3984" style="stroke:#181818;stroke-width:1.0;" width="10" x="954" y="278.5234"/><rect fill="#FFFFFF" height="87.3984" style="stroke:#181818;stroke-width:1.0;" width="10" x="954" y="627.1172"/><rect fill="#FFFFFF" height="29.1328" style="stroke:#181818;stroke-width:1.0;" width="10" x="1240" y="307.6563"/><rect fill="#FFFFFF" height="29.1328" style="stroke:#181818;stroke-width:1.0;" width="10" x="1240" y="656.25"/><rect fill="#FFFFFF" height="29.1328" style="stroke:#181818;stroke-width:1.0;" width="10" x="1240" y="1004.7109"/><rect fill="#FFFFFF" height="38.1328" style="stroke:#181818;stroke-width:1.0;" width="10" x="1240" y="1135.2422"/><line style="stroke:#181818;stroke-width:0.5;stroke-dasharray:5.0,5.0;" x1="26" x2="26" y1="73.5938" y2="1182.375"/><line style="stroke:#181818;stroke-width:0.5;stroke-dasharray:5.0,5.0;" x1="413" x2="413" y1="73.5938" y2="1182.375"/><line style="stroke:#181818;stroke-width:0.5;stroke-dasharray:5.0,5.0;" x1="721" x2="721" y1="73.5938" y2="1182.375"/><line style="stroke:#181818;stroke-width:0.5;stroke-dasharray:5.0,5.0;" x1="856" x2="856" y1="73.5938" y2="1182.375"/><line style="stroke:#181818;stroke-width:0.5;stroke-dasharray:5.0,5.0;" x1="959" x2="959" y1="73.5938" y2="1182.375"/><line style="stroke:#181818;stroke-width:0.5;stroke-dasharray:5.0,5.0;" x1="1245" x2="1245" y1="73.5938" y2="1182.375"/><rect fill="#E2E2F0" height="30.2969" rx="2.5" ry="2.5" style="stroke:#181818;stroke-width:0.5;" width="42" x="5" y="42.2969"/><text fill="#000000" font-family="sans-serif" font-size="14" lengthAdjust="spacing" textLength="28" x="12" y="62.292">设备</text><rect fill="#E2E2F0" height="30.2969" rx="2.5" ry="2.5" style="stroke:#181818;stroke-width:0.5;" width="42" x="5" y="1181.375"/><text fill="#000000" font-family="sans-serif" font-size="14" lengthAdjust="spacing" textLength="28" x="12" y="1201.3701">设备</text><rect fill="#FFA500" height="30.2969" rx="2.5" ry="2.5" style="stroke:#181818;stroke-width:0.5;" width="142" x="342" y="42.2969"/><text fill="#000000" font-family="sans-serif" font-size="14" lengthAdjust="spacing" textLength="128" x="349" y="62.292">mdc-nginx（美西）</text><rect fill="#FFA500" height="30.2969" rx="2.5" ry="2.5" style="stroke:#181818;stroke-width:0.5;" width="142" x="342" y="1181.375"/><text fill="#000000" font-family="sans-serif" font-size="14" lengthAdjust="spacing" textLength="128" x="349" y="1201.3701">mdc-nginx（美西）</text><rect fill="#CD853F" height="30.2969" rx="2.5" ry="2.5" style="stroke:#181818;stroke-width:0.5;" width="164" x="639" y="42.2969"/><text fill="#000000" font-family="sans-serif" font-size="14" lengthAdjust="spacing" textLength="150" x="646" y="62.292">二层路由apisix（美西）</text><rect fill="#CD853F" height="30.2969" rx="2.5" ry="2.5" style="stroke:#181818;stroke-width:0.5;" width="164" x="639" y="1181.375"/><text fill="#000000" font-family="sans-serif" font-size="14" lengthAdjust="spacing" textLength="150" x="646" y="1201.3701">二层路由apisix（美西）</text><rect fill="#FF6347" height="30.2969" rx="2.5" ry="2.5" style="stroke:#181818;stroke-width:0.5;" width="87" x="813" y="42.2969"/><text fill="#000000" font-family="sans-serif" font-size="14" lengthAdjust="spacing" textLength="73" x="820" y="62.292">iot（美西）</text><rect fill="#FF6347" height="30.2969" rx="2.5" ry="2.5" style="stroke:#181818;stroke-width:0.5;" width="87" x="813" y="1181.375"/><text fill="#000000" font-family="sans-serif" font-size="14" lengthAdjust="spacing" textLength="73" x="820" y="1201.3701">iot（美西）</text><rect fill="#90EE90" height="30.2969" rx="2.5" ry="2.5" style="stroke:#181818;stroke-width:0.5;" width="98" x="910" y="42.2969"/><text fill="#000000" font-family="sans-serif" font-size="14" lengthAdjust="spacing" textLength="84" x="917" y="62.292">网关（美西）</text><rect fill="#90EE90" height="30.2969" rx="2.5" ry="2.5" style="stroke:#181818;stroke-width:0.5;" width="98" x="910" y="1181.375"/><text fill="#000000" font-family="sans-serif" font-size="14" lengthAdjust="spacing" textLength="84" x="917" y="1201.3701">网关（美西）</text><rect fill="#90EE90" height="30.2969" rx="2.5" ry="2.5" style="stroke:#181818;stroke-width:0.5;" width="98" x="1196" y="42.2969"/><text fill="#000000" font-family="sans-serif" font-size="14" lengthAdjust="spacing" textLength="84" x="1203" y="62.292">后台（美西）</text><rect fill="#90EE90" height="30.2969" rx="2.5" ry="2.5" style="stroke:#181818;stroke-width:0.5;" width="98" x="1196" y="1181.375"/><text fill="#000000" font-family="sans-serif" font-size="14" lengthAdjust="spacing" textLength="84" x="1203" y="1201.3701">后台（美西）</text><rect fill="#FFFFFF" height="1089.7813" style="stroke:#181818;stroke-width:1.0;" width="10" x="21" y="83.5938"/><rect fill="#FFFFFF" height="276.3281" style="stroke:#181818;stroke-width:1.0;" width="10" x="408" y="147.8594"/><rect fill="#FFFFFF" height="276.3281" style="stroke:#181818;stroke-width:1.0;" width="10" x="408" y="496.4531"/><rect fill="#FFFFFF" height="145.6641" style="stroke:#181818;stroke-width:1.0;" width="10" x="716" y="249.3906"/><rect fill="#FFFFFF" height="145.6641" style="stroke:#181818;stroke-width:1.0;" width="10" x="716" y="597.9844"/><rect fill="#FFFFFF" height="328.3281" style="stroke:#181818;stroke-width:1.0;" width="10" x="851.5" y="845.0469"/><rect fill="#FFFFFF" height="87.3984" style="stroke:#181818;stroke-width:1.0;" width="10" x="954" y="278.5234"/><rect fill="#FFFFFF" height="87.3984" style="stroke:#181818;stroke-width:1.0;" width="10" x="954" y="627.1172"/><rect fill="#FFFFFF" height="29.1328" style="stroke:#181818;stroke-width:1.0;" width="10" x="1240" y="307.6563"/><rect fill="#FFFFFF" height="29.1328" style="stroke:#181818;stroke-width:1.0;" width="10" x="1240" y="656.25"/><rect fill="#FFFFFF" height="29.1328" style="stroke:#181818;stroke-width:1.0;" width="10" x="1240" y="1004.7109"/><rect fill="#FFFFFF" height="38.1328" style="stroke:#181818;stroke-width:1.0;" width="10" x="1240" y="1135.2422"/><rect fill="#EEEEEE" height="3" style="stroke:#EEEEEE;stroke-width:1.0;" width="1299" x="0" y="104.1602"/><line style="stroke:#000000;stroke-width:1.0;" x1="0" x2="1299" y1="104.1602" y2="104.1602"/><line style="stroke:#000000;stroke-width:1.0;" x1="0" x2="1299" y1="107.1602" y2="107.1602"/><rect fill="#EEEEEE" height="23.1328" style="stroke:#000000;stroke-width:2.0;" width="173" x="563" y="93.5938"/><text fill="#000000" font-family="sans-serif" font-size="13" font-weight="bold" lengthAdjust="spacing" textLength="154" x="569" y="109.6606">确定组织对应后台的区域</text><polygon fill="#181818" points="396,143.8594,406,147.8594,396,151.8594,400,147.8594" style="stroke:#181818;stroke-width:1.0;"/><line style="stroke:#181818;stroke-width:1.0;" x1="31" x2="402" y1="147.8594" y2="147.8594"/><text fill="#000000" font-family="sans-serif" font-size="13" font-weight="bold" lengthAdjust="spacing" textLength="9" x="38" y="142.7935">1</text><text fill="#000000" font-family="sans-serif" font-size="13" lengthAdjust="spacing" textLength="156" x="51" y="142.7935">根据邮箱查询用户区域归属</text><line style="stroke:#181818;stroke-width:1.0;" x1="418" x2="460" y1="207.2578" y2="207.2578"/><line style="stroke:#181818;stroke-width:1.0;" x1="460" x2="460" y1="207.2578" y2="220.2578"/><line style="stroke:#181818;stroke-width:1.0;" x1="419" x2="460" y1="220.2578" y2="220.2578"/><polygon fill="#181818" points="429,216.2578,419,220.2578,429,224.2578,425,220.2578" style="stroke:#181818;stroke-width:1.0;"/><text fill="#000000" font-family="sans-serif" font-size="13" font-weight="bold" lengthAdjust="spacing" textLength="9" x="425" y="187.0591">2</text><text fill="#000000" font-family="sans-serif" font-size="13" lengthAdjust="spacing" textLength="258" x="438" y="171.9263">根据”mdc-area“判断是否需要进行跨区流转</text><text fill="#000000" font-family="sans-serif" font-size="13" lengthAdjust="spacing" textLength="145" x="438" y="187.0591">请求没有mdc-are的信息</text><text fill="#000000" font-family="sans-serif" font-size="13" lengthAdjust="spacing" textLength="65" x="438" y="202.1919">不需要转区</text><polygon fill="#181818" points="704,245.3906,714,249.3906,704,253.3906,708,249.3906" style="stroke:#181818;stroke-width:1.0;"/><line style="stroke:#181818;stroke-width:1.0;" x1="418" x2="710" y1="249.3906" y2="249.3906"/><text fill="#000000" font-family="sans-serif" font-size="13" font-weight="bold" lengthAdjust="spacing" textLength="9" x="425" y="244.3247">3</text><text fill="#000000" font-family="sans-serif" font-size="13" lengthAdjust="spacing" textLength="153" x="438" y="244.3247">请求流转给到二层的apisix</text><polygon fill="#181818" points="942,274.5234,952,278.5234,942,282.5234,946,278.5234" style="stroke:#181818;stroke-width:1.0;"/><line style="stroke:#181818;stroke-width:1.0;" x1="726" x2="948" y1="278.5234" y2="278.5234"/><text fill="#000000" font-family="sans-serif" font-size="13" font-weight="bold" lengthAdjust="spacing" textLength="9" x="733" y="273.4575">4</text><text fill="#000000" font-family="sans-serif" font-size="13" lengthAdjust="spacing" textLength="104" x="746" y="273.4575">请求流转给到网关</text><polygon fill="#181818" points="1228,303.6563,1238,307.6563,1228,311.6563,1232,307.6563" style="stroke:#181818;stroke-width:1.0;"/><line style="stroke:#181818;stroke-width:1.0;" x1="964" x2="1234" y1="307.6563" y2="307.6563"/><text fill="#000000" font-family="sans-serif" font-size="13" font-weight="bold" lengthAdjust="spacing" textLength="9" x="971" y="302.5903">5</text><text fill="#000000" font-family="sans-serif" font-size="13" lengthAdjust="spacing" textLength="104" x="984" y="302.5903">请求流转给到后台</text><polygon fill="#181818" points="975,332.7891,965,336.7891,975,340.7891,971,336.7891" style="stroke:#181818;stroke-width:1.0;"/><line style="stroke:#181818;stroke-width:1.0;" x1="969" x2="1244" y1="336.7891" y2="336.7891"/><text fill="#000000" font-family="sans-serif" font-size="13" font-weight="bold" lengthAdjust="spacing" textLength="9" x="981" y="331.7231">6</text><text fill="#000000" font-family="sans-serif" font-size="13" lengthAdjust="spacing" textLength="239" x="994" y="331.7231">根据邮箱信息，返回用户区域”mdc-usa“</text><polygon fill="#181818" points="737,361.9219,727,365.9219,737,369.9219,733,365.9219" style="stroke:#181818;stroke-width:1.0;"/><line style="stroke:#181818;stroke-width:1.0;" x1="731" x2="958" y1="365.9219" y2="365.9219"/><text fill="#000000" font-family="sans-serif" font-size="13" font-weight="bold" lengthAdjust="spacing" textLength="9" x="743" y="360.856">7</text><text fill="#000000" font-family="sans-serif" font-size="13" lengthAdjust="spacing" textLength="148" x="756" y="360.856">返回用户区域”mdc-usa“</text><polygon fill="#181818" points="429,391.0547,419,395.0547,429,399.0547,425,395.0547" style="stroke:#181818;stroke-width:1.0;"/><line style="stroke:#181818;stroke-width:1.0;" x1="423" x2="720" y1="395.0547" y2="395.0547"/><text fill="#000000" font-family="sans-serif" font-size="13" font-weight="bold" lengthAdjust="spacing" textLength="9" x="435" y="389.9888">8</text><text fill="#000000" font-family="sans-serif" font-size="13" lengthAdjust="spacing" textLength="148" x="448" y="389.9888">返回用户区域”mdc-usa“</text><polygon fill="#181818" points="42,420.1875,32,424.1875,42,428.1875,38,424.1875" style="stroke:#181818;stroke-width:1.0;"/><line style="stroke:#181818;stroke-width:1.0;" x1="36" x2="412" y1="424.1875" y2="424.1875"/><text fill="#000000" font-family="sans-serif" font-size="13" font-weight="bold" lengthAdjust="spacing" textLength="9" x="48" y="419.1216">9</text><text fill="#000000" font-family="sans-serif" font-size="13" lengthAdjust="spacing" textLength="148" x="61" y="419.1216">返回用户区域”mdc-usa“</text><rect fill="#EEEEEE" height="3" style="stroke:#EEEEEE;stroke-width:1.0;" width="1299" x="0" y="452.7539"/><line style="stroke:#000000;stroke-width:1.0;" x1="0" x2="1299" y1="452.7539" y2="452.7539"/><line style="stroke:#000000;stroke-width:1.0;" x1="0" x2="1299" y1="455.7539" y2="455.7539"/><rect fill="#EEEEEE" height="23.1328" style="stroke:#000000;stroke-width:2.0;" width="164" x="567.5" y="442.1875"/><text fill="#000000" font-family="sans-serif" font-size="13" font-weight="bold" lengthAdjust="spacing" textLength="145" x="573.5" y="458.2544">确定组织对应的iot地址</text><polygon fill="#181818" points="396,492.4531,406,496.4531,396,500.4531,400,496.4531" style="stroke:#181818;stroke-width:1.0;"/><line style="stroke:#181818;stroke-width:1.0;" x1="31" x2="402" y1="496.4531" y2="496.4531"/><text fill="#000000" font-family="sans-serif" font-size="13" font-weight="bold" lengthAdjust="spacing" textLength="18" x="38" y="491.3872">10</text><text fill="#000000" font-family="sans-serif" font-size="13" lengthAdjust="spacing" textLength="336" x="60" y="491.3872">请求后台获取iot信息，请求带上”mdc-area = mdc-usa“</text><line style="stroke:#181818;stroke-width:1.0;" x1="418" x2="460" y1="555.8516" y2="555.8516"/><line style="stroke:#181818;stroke-width:1.0;" x1="460" x2="460" y1="555.8516" y2="568.8516"/><line style="stroke:#181818;stroke-width:1.0;" x1="419" x2="460" y1="568.8516" y2="568.8516"/><polygon fill="#181818" points="429,564.8516,419,568.8516,429,572.8516,425,568.8516" style="stroke:#181818;stroke-width:1.0;"/><text fill="#000000" font-family="sans-serif" font-size="13" font-weight="bold" lengthAdjust="spacing" textLength="18" x="425" y="535.6528">11</text><text fill="#000000" font-family="sans-serif" font-size="13" lengthAdjust="spacing" textLength="258" x="447" y="520.52">根据”mdc-area“判断是否需要进行跨区流转</text><text fill="#000000" font-family="sans-serif" font-size="13" lengthAdjust="spacing" textLength="238" x="447" y="535.6528">当前值为mdc-usa，且当前服务就是美区</text><text fill="#000000" font-family="sans-serif" font-size="13" lengthAdjust="spacing" textLength="65" x="447" y="550.7856">不需要转区</text><polygon fill="#181818" points="704,593.9844,714,597.9844,704,601.9844,708,597.9844" style="stroke:#181818;stroke-width:1.0;"/><line style="stroke:#181818;stroke-width:1.0;" x1="418" x2="710" y1="597.9844" y2="597.9844"/><text fill="#000000" font-family="sans-serif" font-size="13" font-weight="bold" lengthAdjust="spacing" textLength="18" x="425" y="592.9185">12</text><text fill="#000000" font-family="sans-serif" font-size="13" lengthAdjust="spacing" textLength="153" x="447" y="592.9185">请求流转给到二层的apisix</text><polygon fill="#181818" points="942,623.1172,952,627.1172,942,631.1172,946,627.1172" style="stroke:#181818;stroke-width:1.0;"/><line style="stroke:#181818;stroke-width:1.0;" x1="726" x2="948" y1="627.1172" y2="627.1172"/><text fill="#000000" font-family="sans-serif" font-size="13" font-weight="bold" lengthAdjust="spacing" textLength="18" x="733" y="622.0513">13</text><text fill="#000000" font-family="sans-serif" font-size="13" lengthAdjust="spacing" textLength="143" x="755" y="622.0513">前端的请求流转给到网关</text><polygon fill="#181818" points="1228,652.25,1238,656.25,1228,660.25,1232,656.25" style="stroke:#181818;stroke-width:1.0;"/><line style="stroke:#181818;stroke-width:1.0;" x1="964" x2="1234" y1="656.25" y2="656.25"/><text fill="#000000" font-family="sans-serif" font-size="13" font-weight="bold" lengthAdjust="spacing" textLength="18" x="971" y="651.1841">14</text><text fill="#000000" font-family="sans-serif" font-size="13" lengthAdjust="spacing" textLength="104" x="993" y="651.1841">请求流转给到后台</text><polygon fill="#181818" points="975,681.3828,965,685.3828,975,689.3828,971,685.3828" style="stroke:#181818;stroke-width:1.0;"/><line style="stroke:#181818;stroke-width:1.0;" x1="969" x2="1244" y1="685.3828" y2="685.3828"/><text fill="#000000" font-family="sans-serif" font-size="13" font-weight="bold" lengthAdjust="spacing" textLength="18" x="981" y="680.3169">15</text><text fill="#000000" font-family="sans-serif" font-size="13" lengthAdjust="spacing" textLength="107" x="1003" y="680.3169">返回美西的iot信息</text><polygon fill="#181818" points="737,710.5156,727,714.5156,737,718.5156,733,714.5156" style="stroke:#181818;stroke-width:1.0;"/><line style="stroke:#181818;stroke-width:1.0;" x1="731" x2="958" y1="714.5156" y2="714.5156"/><text fill="#000000" font-family="sans-serif" font-size="13" font-weight="bold" lengthAdjust="spacing" textLength="18" x="743" y="709.4497">16</text><text fill="#000000" font-family="sans-serif" font-size="13" lengthAdjust="spacing" textLength="107" x="765" y="709.4497">返回美西的iot信息</text><polygon fill="#181818" points="429,739.6484,419,743.6484,429,747.6484,425,743.6484" style="stroke:#181818;stroke-width:1.0;"/><line style="stroke:#181818;stroke-width:1.0;" x1="423" x2="720" y1="743.6484" y2="743.6484"/><text fill="#000000" font-family="sans-serif" font-size="13" font-weight="bold" lengthAdjust="spacing" textLength="18" x="435" y="738.5825">17</text><text fill="#000000" font-family="sans-serif" font-size="13" lengthAdjust="spacing" textLength="107" x="457" y="738.5825">返回美西的iot信息</text><polygon fill="#181818" points="42,768.7813,32,772.7813,42,776.7813,38,772.7813" style="stroke:#181818;stroke-width:1.0;"/><line style="stroke:#181818;stroke-width:1.0;" x1="36" x2="412" y1="772.7813" y2="772.7813"/><text fill="#000000" font-family="sans-serif" font-size="13" font-weight="bold" lengthAdjust="spacing" textLength="18" x="48" y="767.7153">18</text><text fill="#000000" font-family="sans-serif" font-size="13" lengthAdjust="spacing" textLength="107" x="70" y="767.7153">返回美西的iot信息</text><rect fill="#EEEEEE" height="3" style="stroke:#EEEEEE;stroke-width:1.0;" width="1299" x="0" y="801.3477"/><line style="stroke:#000000;stroke-width:1.0;" x1="0" x2="1299" y1="801.3477" y2="801.3477"/><line style="stroke:#000000;stroke-width:1.0;" x1="0" x2="1299" y1="804.3477" y2="804.3477"/><rect fill="#EEEEEE" height="23.1328" style="stroke:#000000;stroke-width:2.0;" width="178" x="560.5" y="790.7813"/><text fill="#000000" font-family="sans-serif" font-size="13" font-weight="bold" lengthAdjust="spacing" textLength="159" x="566.5" y="806.8481">连接到组织对应的iot地址</text><polygon fill="#181818" points="839.5,841.0469,849.5,845.0469,839.5,849.0469,843.5,845.0469" style="stroke:#181818;stroke-width:1.0;"/><line style="stroke:#181818;stroke-width:1.0;" x1="31" x2="845.5" y1="845.0469" y2="845.0469"/><text fill="#000000" font-family="sans-serif" font-size="13" font-weight="bold" lengthAdjust="spacing" textLength="18" x="38" y="839.981">19</text><text fill="#000000" font-family="sans-serif" font-size="13" lengthAdjust="spacing" textLength="26" x="60" y="839.981">注册</text><polygon fill="#181818" points="42,870.1797,32,874.1797,42,878.1797,38,874.1797" style="stroke:#181818;stroke-width:1.0;"/><line style="stroke:#181818;stroke-width:1.0;" x1="36" x2="850.5" y1="874.1797" y2="874.1797"/><text fill="#000000" font-family="sans-serif" font-size="13" font-weight="bold" lengthAdjust="spacing" textLength="18" x="48" y="869.1138">20</text><text fill="#000000" font-family="sans-serif" font-size="13" lengthAdjust="spacing" textLength="53" x="70" y="869.1138">返回iotId</text><polygon fill="#181818" points="839.5,899.3125,849.5,903.3125,839.5,907.3125,843.5,903.3125" style="stroke:#181818;stroke-width:1.0;"/><line style="stroke:#181818;stroke-width:1.0;" x1="31" x2="845.5" y1="903.3125" y2="903.3125"/><text fill="#000000" font-family="sans-serif" font-size="13" font-weight="bold" lengthAdjust="spacing" textLength="18" x="38" y="898.2466">21</text><text fill="#000000" font-family="sans-serif" font-size="13" lengthAdjust="spacing" textLength="84" x="60" y="898.2466">broker 长链接</text><rect fill="#EEEEEE" height="3" style="stroke:#EEEEEE;stroke-width:1.0;" width="1299" x="0" y="931.8789"/><line style="stroke:#000000;stroke-width:1.0;" x1="0" x2="1299" y1="931.8789" y2="931.8789"/><line style="stroke:#000000;stroke-width:1.0;" x1="0" x2="1299" y1="934.8789" y2="934.8789"/><rect fill="#EEEEEE" height="23.1328" style="stroke:#000000;stroke-width:2.0;" width="75" x="612" y="921.3125"/><text fill="#000000" font-family="sans-serif" font-size="13" font-weight="bold" lengthAdjust="spacing" textLength="56" x="618" y="937.3794">上行请求</text><polygon fill="#181818" points="839.5,971.5781,849.5,975.5781,839.5,979.5781,843.5,975.5781" style="stroke:#181818;stroke-width:1.0;"/><line style="stroke:#181818;stroke-width:1.0;" x1="31" x2="845.5" y1="975.5781" y2="975.5781"/><text fill="#000000" font-family="sans-serif" font-size="13" font-weight="bold" lengthAdjust="spacing" textLength="18" x="38" y="970.5122">22</text><text fill="#000000" font-family="sans-serif" font-size="13" lengthAdjust="spacing" textLength="52" x="60" y="970.5122">上行请求</text><polygon fill="#181818" points="1228,1000.7109,1238,1004.7109,1228,1008.7109,1232,1004.7109" style="stroke:#181818;stroke-width:1.0;"/><line style="stroke:#181818;stroke-width:1.0;" x1="861.5" x2="1234" y1="1004.7109" y2="1004.7109"/><text fill="#000000" font-family="sans-serif" font-size="13" font-weight="bold" lengthAdjust="spacing" textLength="18" x="868.5" y="999.645">23</text><text fill="#000000" font-family="sans-serif" font-size="13" lengthAdjust="spacing" textLength="117" x="890.5" y="999.645">上行请求转发给后台</text><polygon fill="#181818" points="872.5,1029.8438,862.5,1033.8438,872.5,1037.8438,868.5,1033.8438" style="stroke:#181818;stroke-width:1.0;"/><line style="stroke:#181818;stroke-width:1.0;" x1="866.5" x2="1244" y1="1033.8438" y2="1033.8438"/><text fill="#000000" font-family="sans-serif" font-size="13" font-weight="bold" lengthAdjust="spacing" textLength="18" x="878.5" y="1028.7778">24</text><text fill="#000000" font-family="sans-serif" font-size="13" lengthAdjust="spacing" textLength="78" x="900.5" y="1028.7778">返回请求结果</text><polygon fill="#181818" points="42,1058.9766,32,1062.9766,42,1066.9766,38,1062.9766" style="stroke:#181818;stroke-width:1.0;"/><line style="stroke:#181818;stroke-width:1.0;" x1="36" x2="850.5" y1="1062.9766" y2="1062.9766"/><text fill="#000000" font-family="sans-serif" font-size="13" font-weight="bold" lengthAdjust="spacing" textLength="18" x="48" y="1057.9106">25</text><text fill="#000000" font-family="sans-serif" font-size="13" lengthAdjust="spacing" textLength="78" x="70" y="1057.9106">返回请求结果</text><rect fill="#EEEEEE" height="3" style="stroke:#EEEEEE;stroke-width:1.0;" width="1299" x="0" y="1091.543"/><line style="stroke:#000000;stroke-width:1.0;" x1="0" x2="1299" y1="1091.543" y2="1091.543"/><line style="stroke:#000000;stroke-width:1.0;" x1="0" x2="1299" y1="1094.543" y2="1094.543"/><rect fill="#EEEEEE" height="23.1328" style="stroke:#000000;stroke-width:2.0;" width="75" x="612" y="1080.9766"/><text fill="#000000" font-family="sans-serif" font-size="13" font-weight="bold" lengthAdjust="spacing" textLength="56" x="618" y="1097.0435">下行请求</text><polygon fill="#181818" points="872.5,1131.2422,862.5,1135.2422,872.5,1139.2422,868.5,1135.2422" style="stroke:#181818;stroke-width:1.0;"/><line style="stroke:#181818;stroke-width:1.0;" x1="866.5" x2="1239" y1="1135.2422" y2="1135.2422"/><text fill="#000000" font-family="sans-serif" font-size="13" font-weight="bold" lengthAdjust="spacing" textLength="18" x="878.5" y="1130.1763">26</text><text fill="#000000" font-family="sans-serif" font-size="13" lengthAdjust="spacing" textLength="52" x="900.5" y="1130.1763">下行请求</text><polygon fill="#181818" points="42,1160.375,32,1164.375,42,1168.375,38,1164.375" style="stroke:#181818;stroke-width:1.0;"/><line style="stroke:#181818;stroke-width:1.0;" x1="36" x2="850.5" y1="1164.375" y2="1164.375"/><text fill="#000000" font-family="sans-serif" font-size="13" font-weight="bold" lengthAdjust="spacing" textLength="18" x="48" y="1159.3091">27</text><text fill="#000000" font-family="sans-serif" font-size="13" lengthAdjust="spacing" textLength="52" x="70" y="1159.3091">下行请求</text></g></svg>